<svg t="1627551318238" class="icon" viewBox="0 0 1066 1024" version="1.1" xmlns="http://www.w3.org/2000/svg" p-id="2414" width="32" height="32"><path d="M697.472 0a85.333333 85.333333 0 0 1 85.333333 85.333333v170.666667h128a85.333333 85.333333 0 0 1 85.333334 85.333333v597.333334a85.333333 85.333333 0 0 1-85.333334 85.333333h-725.333333a85.333333 85.333333 0 0 1-85.333333-85.333333V85.333333a85.333333 85.333333 0 0 1 85.333333-85.333333h512z m-42.666667 85.333333h-426.666666a42.666667 42.666667 0 0 0-42.666667 42.666667v768a42.666667 42.666667 0 0 0 42.666667 42.666667h640a42.666667 42.666667 0 0 0 42.666666-42.666667V384a42.666667 42.666667 0 0 0-42.666666-42.666667h-85.333334v378.88a42.666667 42.666667 0 0 1-37.674666 42.368l-4.992 0.298667a42.666667 42.666667 0 0 1-42.666667-42.666667V128a42.666667 42.666667 0 0 0-42.666667-42.666667z m-85.333333 658.773334a42.666667 42.666667 0 0 1 0 85.333333h-256a42.666667 42.666667 0 1 1 0-85.333333h256z m0-182.869334a42.666667 42.666667 0 1 1 0 85.333334h-256a42.666667 42.666667 0 0 1 0-85.333334h256z m0-182.826666a42.666667 42.666667 0 0 1 0 85.333333h-256a42.666667 42.666667 0 1 1 0-85.333333h256z m-256-170.666667a42.666667 42.666667 0 1 1 0 85.333333 42.666667 42.666667 0 0 1 0-85.333333z m256 0a42.666667 42.666667 0 1 1 0 85.333333 42.666667 42.666667 0 0 1 0-85.333333z" fill="#0066cc" p-id="2415"></path></svg>